<svg xmlns="http://www.w3.org/2000/svg" xmlns:xlink="http://www.w3.org/1999/xlink" height="512px" style="enable-background:new 0 0 512 512;" version="1.1" viewBox="0 0 512 512" width="512px" xml:space="preserve"><g id="_x32_21-Monero"><g><path d="M256.253,284.215c-47.643-48.11-94.639-95.241-141.966-143.384c0,61.938,0,123.123,0,184.673    c-1.731,0-3.05,0.334-4.061,0.334c-19.093,0-38.171,0-57.552,0c-2.729,0-4.093-0.668-4.749-3.467    c-7.844-26.478-11.284-53.262-9.229-81.112c3.431-46.798,19.417-88.734,49.379-124.827    c33.028-40.249,74.897-66.011,125.982-76.006c67.363-13.038,128.677,2.755,181.784,47.111    c40.509,33.718,64.986,77.383,74.539,129.645c6.486,35.405,3.768,70.163-6.454,104.525c-1.045,2.731-2.041,3.797-5.106,3.797    c-19.064,0-38.123,0-57.534,0c-1.057,0-2.373,0-3.767,0c0-61.548,0-122.805,0-184.33    C350.557,189.307,303.571,236.44,256.253,284.215L256.253,284.215z" style="fill:#F16822;"/><path d="M70.049,370.179c30.304,0,60.604,0,91.229,0c0-38.501,0-77.016,0-116.192    c31.639,31.959,62.99,63.609,94.288,95.231c31.68-31.997,62.984-63.269,94.684-95.231c0,38.848,0,77.361,0,115.851    c30.604,0,60.588,0,91.883,0c-18.045,29.256-40.496,52.962-68.764,71.184c-27.907,18.238-58.549,29.588-91.564,33.364    C181.37,486.437,103.397,428.981,70.049,370.179L70.049,370.179z" style="fill:#4D4D4D;"/></g></g><g id="Layer_1"/></svg>